<svg xmlns="http://www.w3.org/2000/svg" viewBox="0 0 1600 1000" role="img" aria-label="Abstract luxury data engineering infrastructure background">
  <defs>
    <linearGradient id="bg" x1="0" x2="1" y1="0" y2="1">
      <stop offset="0" stop-color="#050910"/>
      <stop offset="0.45" stop-color="#081520"/>
      <stop offset="1" stop-color="#10251f"/>
    </linearGradient>
    <radialGradient id="goldGlow" cx="78%" cy="28%" r="48%">
      <stop offset="0" stop-color="#d7c187" stop-opacity="0.55"/>
      <stop offset="0.36" stop-color="#d7c187" stop-opacity="0.13"/>
      <stop offset="1" stop-color="#d7c187" stop-opacity="0"/>
    </radialGradient>
    <radialGradient id="tealGlow" cx="64%" cy="72%" r="42%">
      <stop offset="0" stop-color="#5eead4" stop-opacity="0.32"/>
      <stop offset="0.42" stop-color="#5eead4" stop-opacity="0.08"/>
      <stop offset="1" stop-color="#5eead4" stop-opacity="0"/>
    </radialGradient>
    <linearGradient id="panel" x1="0" x2="1">
      <stop offset="0" stop-color="#ffffff" stop-opacity="0.08"/>
      <stop offset="1" stop-color="#ffffff" stop-opacity="0.015"/>
    </linearGradient>
    <filter id="soft" x="-20%" y="-20%" width="140%" height="140%">
      <feGaussianBlur stdDeviation="7"/>
    </filter>
    <pattern id="grid" width="72" height="72" patternUnits="userSpaceOnUse">
      <path d="M72 0H0V72" fill="none" stroke="#d7c187" stroke-opacity="0.055" stroke-width="1"/>
    </pattern>
  </defs>
  <rect width="1600" height="1000" fill="url(#bg)"/>
  <rect width="1600" height="1000" fill="url(#grid)"/>
  <rect width="1600" height="1000" fill="url(#goldGlow)"/>
  <rect width="1600" height="1000" fill="url(#tealGlow)"/>
  <rect width="900" height="1000" fill="#050910" opacity="0.58"/>
  <g opacity="0.92">
    <path d="M820 210C920 210 930 340 1030 340H1390" fill="none" stroke="#d7c187" stroke-opacity="0.48" stroke-width="2"/>
    <path d="M760 610C890 610 930 470 1060 470H1480" fill="none" stroke="#5eead4" stroke-opacity="0.34" stroke-width="2"/>
    <path d="M900 770C990 770 1040 650 1160 650H1535" fill="none" stroke="#d7c187" stroke-opacity="0.32" stroke-width="2"/>
  </g>
  <g transform="translate(870 140)" opacity="0.94">
    <rect x="0" y="0" width="560" height="132" rx="18" fill="url(#panel)" stroke="#d7c187" stroke-opacity="0.24"/>
    <rect x="34" y="30" width="210" height="14" rx="7" fill="#d7c187" opacity="0.46"/>
    <rect x="34" y="66" width="430" height="10" rx="5" fill="#ffffff" opacity="0.12"/>
    <rect x="34" y="92" width="360" height="10" rx="5" fill="#5eead4" opacity="0.18"/>
  </g>
  <g transform="translate(1000 345)" opacity="0.9">
    <rect x="0" y="0" width="470" height="230" rx="22" fill="url(#panel)" stroke="#5eead4" stroke-opacity="0.18"/>
    <path d="M36 166L86 122L139 140L188 80L245 108L300 54L376 92L434 40" fill="none" stroke="#d7c187" stroke-width="4" stroke-linecap="round" stroke-linejoin="round"/>
    <path d="M36 178H436M36 130H436M36 82H436" stroke="#ffffff" stroke-opacity="0.08"/>
    <circle cx="188" cy="80" r="7" fill="#5eead4"/>
    <circle cx="300" cy="54" r="7" fill="#d7c187"/>
  </g>
  <g transform="translate(842 645)">
    <rect x="0" y="0" width="620" height="140" rx="24" fill="#07121c" opacity="0.68" stroke="#d7c187" stroke-opacity="0.18"/>
    <g fill="none" stroke="#5eead4" stroke-opacity="0.3" stroke-width="2">
      <path d="M48 72H156M156 72C210 72 210 32 264 32H358M156 72C210 72 210 112 264 112H358"/>
      <path d="M410 32H542M410 112H542"/>
    </g>
    <g fill="#d7c187">
      <circle cx="48" cy="72" r="8"/><circle cx="156" cy="72" r="8"/><circle cx="264" cy="32" r="8"/><circle cx="264" cy="112" r="8"/><circle cx="410" cy="32" r="8"/><circle cx="410" cy="112" r="8"/><circle cx="542" cy="32" r="8"/><circle cx="542" cy="112" r="8"/>
    </g>
  </g>
  <g opacity="0.6" filter="url(#soft)">
    <circle cx="1240" cy="310" r="48" fill="#d7c187" opacity="0.28"/>
    <circle cx="1120" cy="700" r="56" fill="#5eead4" opacity="0.2"/>
  </g>
</svg>
